<?xml version="1.0" encoding="UTF-8"?>
<svg version="1.1" xmlns="http://www.w3.org/2000/svg" width="572" height="362">
<path d="M0 0 C66.33 0 132.66 0 201 0 C198.58516505 6.03708737 196.21973652 11.85611652 193.34765625 17.6484375 C193.01157349 18.33450073 192.67549072 19.02056396 192.32922363 19.72741699 C191.61355477 21.18824905 190.89645632 22.64838151 190.17800903 24.10784912 C184.50547355 35.63666102 178.9241759 47.19800068 173.5625 58.875 C168.52785548 69.82725132 163.29594612 80.67234678 158 91.5 C152.05998695 103.64528688 146.23604808 115.82954441 140.57714844 128.10864258 C136.8621982 136.16465156 133.08284822 144.18701693 129.25 152.1875 C128.7358252 153.26418945 128.22165039 154.34087891 127.69189453 155.45019531 C127.22122559 156.42956055 126.75055664 157.40892578 126.265625 158.41796875 C125.85086914 159.28188232 125.43611328 160.1457959 125.00878906 161.03588867 C124 163 124 163 123 164 C120.38399547 164.12507482 117.79308066 164.18605405 115.17553711 164.20532227 C114.35609116 164.21522186 113.5366452 164.22512146 112.69236755 164.23532104 C109.97072283 164.26703055 107.24906061 164.29173062 104.52734375 164.31640625 C102.64546747 164.33696763 100.76359589 164.35796388 98.88172913 164.37937927 C93.91856689 164.43468426 88.9553624 164.48405623 83.99212646 164.53222656 C78.93156149 164.58238022 73.8710582 164.63809824 68.81054688 164.69335938 C58.87375055 164.80104395 48.93690077 164.90246589 39 165 C39.67927551 165.67383728 40.35855103 166.34767456 41.05841064 167.04193115 C41.95340271 167.93269348 42.84839478 168.82345581 43.77050781 169.74121094 C44.65603333 170.62129822 45.54155884 171.5013855 46.45391846 172.40814209 C49.2048755 175.20855898 51.78767094 178.10957067 54.34179688 181.08789062 C57.21346853 184.39927643 60.23928648 187.56546231 63.25 190.75 C68.65236904 196.48814337 74.01259914 202.25935409 79.328125 208.078125 C82.18877655 211.20643985 85.0610975 214.3236772 87.9375 217.4375 C88.43660889 217.97785889 88.93571777 218.51821777 89.44995117 219.07495117 C90.46120612 220.16964892 91.47251812 221.26429396 92.48388672 222.35888672 C95.48817668 225.61087337 98.49077099 228.86442612 101.49316406 232.11816406 C104.02870536 234.86569053 106.56571571 237.61183463 109.10546875 240.35546875 C111.60459697 243.05577128 114.09871772 245.76061518 116.58935547 248.46875 C117.5241002 249.48341233 118.46060481 250.49645642 119.39892578 251.5078125 C120.6871889 252.89681548 121.9687825 254.29199549 123.25 255.6875 C123.97703125 256.47511719 124.7040625 257.26273437 125.453125 258.07421875 C127 260 127 260 127 262 C88.50149622 264.77255342 88.50149622 264.77255342 80.32421875 258.859375 C77.055108 255.65643898 74.58406089 252.02222599 72.27978516 248.08154297 C70.34681253 244.93760465 67.88029524 242.44037635 65.3125 239.8125 C64.44109375 238.85859375 63.5696875 237.9046875 62.671875 236.921875 C59.81122345 233.79356015 56.9389025 230.6763228 54.0625 227.5625 C53.56339111 227.02214111 53.06428223 226.48178223 52.55004883 225.92504883 C51.53879388 224.83035108 50.52748188 223.73570604 49.51611328 222.64111328 C47.00985896 219.92822414 44.50499554 217.21405141 42 214.5 C41.00000676 213.41666043 40.00000676 212.33332709 39 211.25 C21 191.75 21 191.75 19.49780273 190.12255859 C18.50520819 189.04728829 17.51253338 187.97209206 16.51977539 186.89697266 C13.90578371 184.0659006 11.29350335 181.23327358 8.68359375 178.3984375 C8.14025391 177.80869141 7.59691406 177.21894531 7.03710938 176.61132812 C5.99753101 175.48289691 4.95844094 174.35401557 3.91992188 173.22460938 C2.04105855 171.18595246 0.17391135 169.16468039 -1.83984375 167.2578125 C-3 166 -3 166 -3 164 C-14.22 164 -25.44 164 -37 164 C-37.99 166.97 -37.99 166.97 -39 170 C-39.97197251 172.14360261 -40.98146435 174.27042527 -42.01953125 176.3828125 C-42.31405182 176.98575134 -42.60857239 177.58869019 -42.91201782 178.2098999 C-43.54540946 179.50635759 -44.18032255 180.80207288 -44.81661987 182.09710693 C-46.53014047 185.58631857 -48.23058878 189.08187244 -49.9296875 192.578125 C-50.27557419 193.28971771 -50.62146088 194.00131042 -50.97782898 194.73446655 C-54.21431464 201.41015584 -57.33710767 208.13497413 -60.4375 214.875 C-67.72487573 230.6988187 -75.36850465 246.33884433 -83 262 C-96.53 262 -110.06 262 -124 262 C-123.05756806 257.28784029 -121.53849499 253.63579857 -119.421875 249.40234375 C-119.05930603 248.66472305 -118.69673706 247.92710236 -118.32318115 247.16712952 C-117.54345885 245.5816714 -116.7612506 243.99743391 -115.97680664 242.41430664 C-113.89350542 238.20831841 -111.82964707 233.99281824 -109.765625 229.77734375 C-109.35231934 228.93400482 -108.93901367 228.09066589 -108.51318359 227.22177124 C-105.07587381 220.19220921 -101.76133994 213.11309487 -98.5 206 C-93.11528581 194.27763934 -87.49153365 182.68256672 -81.82373047 171.09521484 C-76.9420771 161.11010727 -72.14052653 151.0999695 -67.5 141 C-62.1139452 129.27741014 -56.49095612 117.68121538 -50.82272339 106.09320068 C-45.96171039 96.15053583 -41.18110953 86.18309021 -36.5625 76.125 C-30.59581502 63.1388553 -24.34906433 50.29617221 -18.06079102 37.46337891 C-11.96197009 25.01056171 -5.98357883 12.51111936 0 0 Z M26 33 C24.73008207 35.36213951 23.46234753 37.72540912 22.19580078 40.08935547 C21.66283134 41.07992195 21.66283134 41.07992195 21.11909485 42.09049988 C17.78435133 48.32181574 14.79738542 54.69073713 11.875 61.125 C10.7694347 63.54546645 9.66239936 65.96513188 8.55078125 68.3828125 C8.26752487 68.99892395 7.98426849 69.6150354 7.69242859 70.24981689 C5.53463082 74.91299084 3.27590945 79.5204458 0.98046875 84.1171875 C0.31971013 85.44899939 -0.34093577 86.78086722 -1.00146484 88.11279297 C-1.96187062 90.04814059 -2.92727236 91.97998678 -3.91046143 93.90386963 C-4.81736487 95.67894193 -5.70409857 97.46427578 -6.58984375 99.25 C-7.10409912 100.26578125 -7.61835449 101.2815625 -8.14819336 102.328125 C-9.25654512 104.91663386 -9.25654512 104.91663386 -8.31152344 107.17480469 C-6.21913968 110.08669243 -3.7795882 112.6584953 -1.3125 115.25 C-0.28661603 116.33746322 0.73811058 117.42601934 1.76171875 118.515625 C2.27666901 119.03848083 2.79161926 119.56133667 3.32217407 120.10003662 C5 122 5 122 6.16207886 124.06280518 C8.14911697 127.22890885 10.07837614 129.53671895 13.84497261 130.44480133 C19.70419579 131.15875806 25.60830651 130.91567094 31.49609375 130.78125 C33.4142063 130.7663172 35.33234949 130.75493509 37.25050354 130.74694824 C42.28353061 130.7164956 47.31469182 130.63799293 52.34698486 130.54931641 C57.48822796 130.46727583 62.62977448 130.43089797 67.77148438 130.390625 C77.84847319 130.30499116 87.92408106 130.16856825 98 130 C99.26315653 127.47772866 100.52586679 124.95523549 101.78833008 122.43261719 C102.14151558 121.72748993 102.49470108 121.02236267 102.85858917 120.29586792 C106.18891889 113.63975991 109.45318116 106.95335222 112.6875 100.25 C112.97903961 99.64646698 113.27057922 99.04293396 113.57095337 98.42111206 C118.76241289 87.66683671 123.82529369 76.85538467 128.82495117 66.01074219 C129.33002197 64.91536133 129.83509277 63.81998047 130.35546875 62.69140625 C130.79528076 61.73435791 131.23509277 60.77730957 131.68823242 59.79125977 C133 57 133 57 134.7902832 53.89428711 C136.28794404 51.21251199 136.28794404 51.21251199 135.40353394 49.26689148 C131.28684442 42.61789771 126.40429333 34.81288364 118.65206528 32.21237946 C112.12629218 31.03974038 105.54426224 31.39099044 98.94921875 31.6328125 C96.83794262 31.65897294 94.72658063 31.67887841 92.6151886 31.69284058 C87.09733256 31.74592267 81.58475907 31.88308217 76.06896973 32.03869629 C70.42496194 32.18274573 64.78008759 32.24602776 59.13476562 32.31640625 C48.08754123 32.46588728 37.04421228 32.70434092 26 33 Z " fill="#FFFFFF" transform="translate(371,0)"/>
<path d="M0 0 C66.33 0 132.66 0 201 0 C199.62078889 4.13763332 198.30706214 7.65140519 196.41796875 11.5078125 C195.64900269 13.08828369 195.64900269 13.08828369 194.86450195 14.70068359 C194.03438599 16.39572021 194.03438599 16.39572021 193.1875 18.125 C191.99439149 20.57667289 190.80506781 23.03016514 189.6171875 25.484375 C189.31349747 26.1115744 189.00980743 26.7387738 188.69691467 27.38497925 C185.65750323 33.67913574 182.73249497 40.02469275 179.8125 46.375 C174.31734623 58.30079709 168.59438827 70.10691705 162.82510376 81.90203857 C157.94298458 91.88807004 153.14120612 101.89920724 148.5 112 C143.22810094 123.46732369 137.76808054 134.83698345 132.25 146.1875 C131.84515381 147.02192627 131.44030762 147.85635254 131.02319336 148.71606445 C129.87733427 151.0762584 128.72837475 153.43491203 127.578125 155.79296875 C127.23086365 156.50817184 126.88360229 157.22337494 126.52581787 157.96025085 C124.11560448 162.88439552 124.11560448 162.88439552 123 164 C120.93705722 164.09681822 118.87073958 164.12186923 116.80552673 164.12025452 C116.15130393 164.12110894 115.49708113 164.12196337 114.82303339 164.12284368 C112.61498657 164.12450028 110.40701452 164.11897421 108.19897461 164.11352539 C106.62249249 164.11324353 105.04601024 164.11340123 103.4695282 164.1139679 C99.17632451 164.11425592 94.88314851 164.1083584 90.58995128 164.10139394 C86.10827317 164.09516121 81.62659449 164.09455667 77.14491272 164.09336853 C68.65219091 164.09025497 60.15948191 164.08204126 51.66676575 164.07201904 C42.00066461 164.06085866 32.33456288 164.05534764 22.66845691 164.05032361 C2.77896412 164.03985866 -17.11051714 164.02225875 -37 164 C-37.29215487 164.90218152 -37.29215487 164.90218152 -37.59021187 165.82258892 C-37.85169958 166.62038674 -38.11318729 167.41818457 -38.38259888 168.24015808 C-38.63924379 169.02723742 -38.89588871 169.81431677 -39.16031075 170.625247 C-40.48425912 174.36954927 -42.2183058 177.87784362 -43.9921875 181.42578125 C-44.37453049 182.20294998 -44.75687347 182.98011871 -45.15080261 183.78083801 C-45.96612329 185.43734246 -46.78384105 187.09266895 -47.60379028 188.74688721 C-49.7656696 193.11008957 -51.90819516 197.4827678 -54.05078125 201.85546875 C-54.69094429 203.16088623 -54.69094429 203.16088623 -55.34403992 204.49267578 C-59.01422476 211.99304317 -62.56853774 219.54096448 -66.0625 227.125 C-66.82941162 228.78909912 -66.82941162 228.78909912 -67.61181641 230.48681641 C-68.59506131 232.62117729 -69.57814055 234.7556145 -70.56103516 236.89013672 C-72.92710045 242.00363174 -75.33288913 247.09797119 -77.75 252.1875 C-78.16902588 253.0738916 -78.58805176 253.9602832 -79.01977539 254.87353516 C-79.39996826 255.67194824 -79.78016113 256.47036133 -80.171875 257.29296875 C-80.5028418 257.9893042 -80.83380859 258.68563965 -81.17480469 259.40307617 C-82 261 -82 261 -83 262 C-86.02977804 262.08871273 -89.03667022 262.1151935 -92.06640625 262.09765625 C-92.97502914 262.0962413 -93.88365204 262.09482635 -94.81980896 262.09336853 C-97.73407221 262.08775193 -100.64825981 262.07519665 -103.5625 262.0625 C-105.53320202 262.05748714 -107.50390524 262.05292386 -109.47460938 262.04882812 C-114.31643559 262.03777711 -119.15820495 262.02050138 -124 262 C-122.46703287 256.98924933 -120.40086217 252.39354093 -118.140625 247.68359375 C-117.56929337 246.48268852 -117.56929337 246.48268852 -116.98641968 245.25752258 C-115.74434613 242.64921211 -114.49723815 240.04334428 -113.25 237.4375 C-112.38435695 235.62218756 -111.51896194 233.80675682 -110.65380859 231.99121094 C-105.11764171 220.38336926 -99.52965995 208.80109278 -93.91772461 197.22973633 C-90.13022243 189.39980924 -86.44890489 181.52607128 -82.8125 173.625 C-77.14255889 161.31040351 -71.21593398 149.12951004 -65.25335693 136.95446777 C-59.6724313 125.5534849 -54.21895126 114.11037711 -48.921875 102.57421875 C-44.42123891 92.81339338 -39.72255388 83.15493368 -35 73.5 C-29.62256367 62.50530835 -24.31385087 51.48924966 -19.1875 40.375 C-12.9311838 26.8512458 -6.46419365 13.42563297 0 0 Z M26 33 C24.74213109 35.51169087 23.48471166 38.02360515 22.22753906 40.53564453 C21.87648102 41.23651688 21.52542297 41.93738922 21.16372681 42.65950012 C17.63847397 49.70517669 14.18082804 56.78292113 10.75 63.875 C10.43416962 64.52711456 10.11833923 65.17922913 9.79293823 65.85110474 C3.35478955 79.15489212 -2.87078364 92.55107488 -9 106 C-5.05710183 110.65795425 -1.02520179 115.21356124 3.125 119.6875 C3.63675781 120.24244141 4.14851562 120.79738281 4.67578125 121.36914062 C6.11033037 122.91985503 7.54454304 124.46887485 9 126 C9.51982452 126.68232193 10.03964905 127.36464386 10.57522583 128.06764221 C13.98114553 130.78189723 17.08824215 130.53091672 21.25683594 130.45410156 C22.08647354 130.45468567 22.91611115 130.45526978 23.77088928 130.45587158 C26.50914563 130.45308808 29.24630917 130.42198411 31.984375 130.390625 C33.88437302 130.38316354 35.78437874 130.37747016 37.68438721 130.37347412 C42.68228446 130.35821028 47.67971586 130.31892193 52.6774292 130.2746582 C57.77837828 130.23372172 62.87940271 130.21546657 67.98046875 130.1953125 C77.98718371 130.15242847 87.9935531 130.08416798 98 130 C102.29990413 121.41774524 106.59815592 112.83556068 110.8046875 104.20703125 C111.21089828 103.37537445 111.61710907 102.54371765 112.03562927 101.68685913 C115.51351766 94.56298753 118.97986195 87.43348901 122.4438324 80.30284119 C124.79728884 75.46093295 127.16799535 70.62835865 129.55859375 65.8046875 C130.47679312 63.93240475 131.39478968 62.06002251 132.3125 60.1875 C132.72032715 59.37837158 133.1281543 58.56924316 133.54833984 57.7355957 C135.49155685 54.00662707 135.49155685 54.00662707 135.70483398 49.92871094 C134.65798075 47.06409695 132.81727287 45.28379154 130.75 43.0625 C129.59757812 41.81146484 129.59757812 41.81146484 128.421875 40.53515625 C127.22304688 39.28025391 127.22304688 39.28025391 126 38 C125.31662064 37.13441971 124.63324127 36.26883942 123.92915344 35.37702942 C119.84616536 32.06365476 116.82049831 32.32685355 111.71166992 32.43237305 C110.78435059 32.43164291 109.85703125 32.43091278 108.90161133 32.43016052 C105.84396373 32.43363719 102.78784941 32.47250268 99.73046875 32.51171875 C97.60769991 32.52104658 95.4849203 32.52816283 93.36213684 32.53315735 C87.78054988 32.55222936 82.19961559 32.60133264 76.61828613 32.65667725 C70.92074411 32.70786491 65.22309641 32.73067041 59.52539062 32.75585938 C48.34997398 32.80945058 37.17504131 32.89476643 26 33 Z " fill="#FFFFFF" transform="translate(124,0)"/>
</svg>
